<svg width="50" height="48" viewBox="0 0 50 48" fill="none" xmlns="http://www.w3.org/2000/svg">
<path d="M16.9827 17.8227C17.4407 16.4951 26.1436 -1.64868 27.0598 0.121449C27.976 1.89158 33.0144 18.7078 33.9305 17.8227C34.8466 16.9377 50.8782 16.9377 49.9622 17.8227C49.0462 18.7078 36.6788 28.4435 36.6788 31.5412C36.6788 34.639 45.3818 49.2425 43.5495 47.9149C41.7173 46.5873 27.0597 39.5068 24.7695 39.5068C22.4793 39.5068 7.82181 47.4171 6.44767 47.9149C5.07353 48.4128 13.7764 30.2136 13.3184 28.886C12.8603 27.5584 0.951021 19.1503 0.0349256 17.8227C-0.88117 16.4951 16.5246 19.1503 16.9827 17.8227Z" fill="white"/>
</svg>
