<svg width="50" height="50" viewBox="0 0 50 50" fill="none" xmlns="http://www.w3.org/2000/svg">
<path d="M5.95716 49.9862C4.58243 49.5321 0 45.4449 0 44.0825C0 42.7201 10.5396 33.6376 10.5396 33.1835C10.5396 32.7293 1.83297 24.555 1.83297 24.1009C1.83297 23.6468 6.87364 20.4679 7.33189 20.4679C7.79013 20.4679 14.2055 27.7337 14.6638 27.7337C15.122 27.7337 35.2847 4.11905 35.743 4.11905C36.2012 4.11905 49.4902 -0.421975 49.9485 0.0319309C50.4067 0.485837 47.6573 14.1099 47.6573 14.564C47.6573 15.0181 22.9121 35.908 22.9121 36.3622C22.9121 36.8163 29.7858 42.7201 29.7858 43.1743C29.7858 43.6284 26.5781 47.7155 25.6616 47.7155C24.7451 47.7155 17.8715 39.5414 17.4132 39.5414C16.955 39.5414 7.33189 50.4403 5.95716 49.9862Z" fill="white"/>
</svg>
